<svg width="48" height="49" viewBox="0 0 48 49" fill="none" xmlns="http://www.w3.org/2000/svg">
<g id="ic:baseline-apple">
<path id="Vector" d="M34.1003 40.81C32.1403 42.71 30.0003 42.41 27.9403 41.51C25.7603 40.59 23.7603 40.55 21.4603 41.51C18.5803 42.75 17.0603 42.39 15.3403 40.81C5.58033 30.75 7.02033 15.43 18.1003 14.87C20.8003 15.01 22.6803 16.35 24.2603 16.47C26.6203 15.99 28.8803 14.61 31.4003 14.79C34.4203 15.03 36.7003 16.23 38.2003 18.39C31.9603 22.13 33.4403 30.35 39.1603 32.65C38.0203 35.65 36.5403 38.63 34.0803 40.83L34.1003 40.81ZM24.0603 14.75C23.7603 10.29 27.3803 6.61 31.5403 6.25C32.1203 11.41 26.8603 15.25 24.0603 14.75Z" fill="#1E2329"/>
</g>
</svg>
