<svg width="17" height="17" viewBox="0 0 17 17" fill="none" xmlns="http://www.w3.org/2000/svg">
<g id="ic:round-download">
<path id="Vector" d="M11.5599 6.25H10.4999V2.91667C10.4999 2.55 10.1999 2.25 9.83325 2.25H7.16658C6.79992 2.25 6.49992 2.55 6.49992 2.91667V6.25H5.43992C4.84659 6.25 4.54659 6.97 4.96659 7.39L8.02659 10.45C8.28658 10.71 8.70658 10.71 8.96658 10.45L12.0266 7.39C12.4466 6.97 12.1533 6.25 11.5599 6.25ZM3.83325 12.9167C3.83325 13.2833 4.13325 13.5833 4.49992 13.5833H12.4999C12.8666 13.5833 13.1666 13.2833 13.1666 12.9167C13.1666 12.55 12.8666 12.25 12.4999 12.25H4.49992C4.13325 12.25 3.83325 12.55 3.83325 12.9167Z" fill="#474D57"/>
</g>
</svg>
