<svg width="48" height="49" viewBox="0 0 48 49" fill="none" xmlns="http://www.w3.org/2000/svg">
<g id="mdi:linux">
<path id="Vector" d="M29.2397 17.45C28.3997 18.01 25.7397 19.53 25.3397 19.83C24.5597 20.45 23.8397 20.41 23.0597 19.81C22.6597 19.49 19.9997 17.97 19.1597 17.43C18.1997 16.81 18.2597 16.03 19.3197 15.59C22.5997 14.21 25.8797 14.31 29.1397 15.65C30.1197 16.07 30.1597 16.85 29.2397 17.45ZM43.6797 32.01C41.8197 27.83 39.2797 24.03 35.9997 20.69C34.9856 19.6367 34.256 18.3428 33.8797 16.93C33.6797 16.27 33.5397 15.59 33.3997 14.91C32.9997 13.15 32.8197 11.35 31.9997 9.69C30.5397 6.53 27.9997 4.89 24.3197 4.75C20.6997 4.85 17.9997 6.37 16.4197 9.55C15.9997 10.41 15.6997 11.31 15.4997 12.23C15.1597 13.75 14.8597 15.33 14.4997 16.87C14.1997 18.17 13.5997 19.29 12.5797 20.29C9.35968 23.43 6.77968 27.03 4.81968 30.99C4.53968 31.57 4.25968 32.15 4.07968 32.75C3.69968 34.07 4.65968 34.99 6.05968 34.67C6.93968 34.49 7.81968 34.31 8.65968 34.05C9.47968 33.75 9.79968 33.95 9.99968 34.75C11.2997 39.05 14.1397 42.07 18.4797 43.75C26.7197 46.87 36.3397 42.43 38.4197 34.59C38.5597 34.05 38.7597 33.85 39.3597 34.05C40.2797 34.33 41.2197 34.53 42.1597 34.75C43.1397 34.93 43.8597 34.43 43.9997 33.47C44.0597 32.95 43.8797 32.49 43.6797 32.01Z" fill="#1E2329"/>
</g>
</svg>
