<svg xmlns="http://www.w3.org/2000/svg" width="20" height="20" viewBox="0 0 20 20" fill="none">
    <path d="M6.66699 8.33464C6.66699 7.89261 6.84259 7.46869 7.15515 7.15612C7.46771 6.84356 7.89163 6.66797 8.33366 6.66797H15.0003C15.4424 6.66797 15.8663 6.84356 16.1788 7.15612C16.4914 7.46869 16.667 7.89261 16.667 8.33464V15.0013C16.667 15.4433 16.4914 15.8673 16.1788 16.1798C15.8663 16.4924 15.4424 16.668 15.0003 16.668H8.33366C7.89163 16.668 7.46771 16.4924 7.15515 16.1798C6.84259 15.8673 6.66699 15.4433 6.66699 15.0013V8.33464Z" stroke="#056FFA" stroke-width="1.66667" stroke-linecap="round" stroke-linejoin="round"/>
    <path d="M13.3335 6.66732V5.00065C13.3335 4.55862 13.1579 4.1347 12.8453 3.82214C12.5328 3.50958 12.1089 3.33398 11.6668 3.33398H5.00016C4.55814 3.33398 4.13421 3.50958 3.82165 3.82214C3.50909 4.1347 3.3335 4.55862 3.3335 5.00065V11.6673C3.3335 12.1093 3.50909 12.5333 3.82165 12.8458C4.13421 13.1584 4.55814 13.334 5.00016 13.334H6.66683" stroke="#056FFA" stroke-width="1.66667" stroke-linecap="round" stroke-linejoin="round"/>
</svg>
