<svg width="17" height="17" viewBox="0 0 17 17" fill="none" xmlns="http://www.w3.org/2000/svg">
<g id="tabler:copy">
<g id="Group">
<path id="Vector" d="M5.83325 7.41732C5.83325 7.0637 5.97373 6.72456 6.22378 6.47451C6.47383 6.22446 6.81296 6.08398 7.16659 6.08398H12.4999C12.8535 6.08398 13.1927 6.22446 13.4427 6.47451C13.6928 6.72456 13.8333 7.0637 13.8333 7.41732V12.7507C13.8333 13.1043 13.6928 13.4434 13.4427 13.6935C13.1927 13.9435 12.8535 14.084 12.4999 14.084H7.16659C6.81296 14.084 6.47383 13.9435 6.22378 13.6935C5.97373 13.4434 5.83325 13.1043 5.83325 12.7507V7.41732Z" stroke="#474D57" stroke-width="1.33333" stroke-linecap="round" stroke-linejoin="round"/>
<path id="Vector_2" d="M11.1667 6.08366V4.75033C11.1667 4.3967 11.0263 4.05756 10.7762 3.80752C10.5262 3.55747 10.187 3.41699 9.83341 3.41699H4.50008C4.14646 3.41699 3.80732 3.55747 3.55727 3.80752C3.30722 4.05756 3.16675 4.3967 3.16675 4.75033V10.0837C3.16675 10.4373 3.30722 10.7764 3.55727 11.0265C3.80732 11.2765 4.14646 11.417 4.50008 11.417H5.83341" stroke="#474D57" stroke-width="1.33333" stroke-linecap="round" stroke-linejoin="round"/>
</g>
</g>
</svg>
