<svg width="37" height="39" viewBox="0 0 37 39" fill="none" xmlns="http://www.w3.org/2000/svg">
    <path fill-rule="evenodd" clip-rule="evenodd" d="M33.1407 7.94522V13.2737C33.1407 19.5397 28.107 24.6193 21.8977 24.6193C21.3826 24.6193 20.8681 24.5836 20.3579 24.5124C13.9376 23.6166 9.62676 23.2819 7.4253 23.5082C3.99 23.8614 1.51485 26.0102 -0.000141144 29.9546V8.73974C-0.000141144 3.91292 3.87735 0 8.66048 0L25.2674 0C29.6157 0 33.1407 3.5572 33.1407 7.94522Z" fill="url(#paint0_linear_485_5794)"/>
    <path fill-rule="evenodd" clip-rule="evenodd" d="M34.5985 19.4919C34.5852 26.1804 34.6 30.2621 34.643 31.737C34.7087 33.9886 35.4945 36.212 37.0002 38.4072H21.2323C14.275 38.4072 8.63501 32.7156 8.63501 25.6948C8.63501 25.5746 8.6367 25.4545 8.64007 25.3344C8.87677 16.9129 8.99512 12.3764 8.99512 11.7249C8.99512 10.7923 8.75259 9.13527 8.26752 6.75394L22.0013 6.75394C28.9585 6.75394 34.5985 12.4454 34.5985 19.4663C34.5985 19.4748 34.5985 19.4833 34.5985 19.4919Z" fill="url(#paint1_linear_485_5794)"/>
    <path d="M14.7626 15.8904C16.1758 15.8904 17.3214 14.7343 17.3214 13.3082C17.3214 11.8821 16.1758 10.726 14.7626 10.726C13.3494 10.726 12.2037 11.8821 12.2037 13.3082C12.2037 14.7343 13.3494 15.8904 14.7626 15.8904Z" fill="white"/>
    <path d="M16.0189 24.0171C15.9129 25.8825 16.8934 30.5891 22.3829 31.6681" stroke="white" stroke-width="2.22383"/>
    <defs>
        <linearGradient id="paint0_linear_485_5794" x1="2.1612" y1="30.0072" x2="2.83516" y2="-0.665882" gradientUnits="userSpaceOnUse">
            <stop stop-color="#00BDB6"/>
            <stop offset="1" stop-color="#4DE7DC"/>
        </linearGradient>
        <linearGradient id="paint1_linear_485_5794" x1="10.1414" y1="38.4627" x2="11.0092" y2="6.05789" gradientUnits="userSpaceOnUse">
            <stop stop-color="#1773EB"/>
            <stop offset="1" stop-color="#4DA0FF"/>
        </linearGradient>
    </defs>
</svg>
